<svg xmlns="http://www.w3.org/2000/svg" width="521" height="309" fill="none">
  <rect width="78.937" height="18.485" x="269" y="172.911" fill="#eab308" rx="9.242" transform="rotate(-43.075 269 172.911)"/>
  <rect width="78.937" height="18.485" x="319" y="172.911" fill="#eab308" rx="9.242" transform="rotate(-43.075 319 172.911)"/>
  <rect width="78.937" height="18.485" x="369.285" y="172.911" fill="#eab308" rx="9.242" transform="rotate(-43.075 369.285 172.911)"/>
  <rect width="28.464" height="18.485" x="419.57" y="172.911" fill="#eab308" rx="9.242" transform="rotate(-43.075 419.57 172.911)"/>
  <path d="M249 51.5c3.737.623 4.693 1.537 7 4.5.494 2.926.494 2.926.486 6.37.01 1.938.01 1.938.018 3.915q-.02 2.114-.043 4.227-.003 2.178-.003 4.357-.006 4.569-.046 9.137c-.034 3.882-.042 7.764-.04 11.646q-.003 4.503-.026 9.006-.01 2.145-.012 4.29c-.029 13.128-1.033 23.998-10.19 34.099-8.415 7.861-17.49 10.29-28.757 10.164-10.718-.668-17.88-5.335-25.137-12.961-7.51-9.178-8.271-18.73-7.478-30.206 1.043-9.368 6.81-17.442 13.916-23.356 7.702-5.34 15.989-6.319 25.156-5.336C230.468 82.712 235.68 85.968 241 90l.028-3.058c.04-3.75.106-7.499.18-11.249q.042-2.432.063-4.865c.021-2.334.068-4.666.12-7l.003-2.191c.1-3.422.373-5.328 2.457-8.095C246 52 246 52 249 51.5m-45.312 49.75c-4.139 5.288-6.28 10.871-5.973 17.676.939 6.829 3.243 12.256 8.285 17.074 5.19 3.41 10.693 5.546 17.004 4.746 7.707-1.623 12.234-5.605 16.797-11.844 3.372-5.35 2.693-11.826 2.199-17.902-1.635-6.666-5.22-11.334-11-15-9.793-4.656-20.015-2.566-27.312 5.25M78.574 87.18C86.141 92.858 91.182 99.635 93 109c1.219 10.989.683 21.491-5.953 30.715C81.287 146.57 75 151.615 66 153c-9.933.857-17.548-.738-25.653-6.585l-1.902-1.37L37 144l-.044 3.165c-.058 3.875-.135 7.75-.218 11.624a799 799 0 0 0-.084 5.031c-.034 2.41-.086 4.82-.142 7.23l-.02 2.274c-.145 5.158-.145 5.158-1.81 7.645-2.924 1.792-5.364 1.439-8.682 1.031-2.873-2.142-3.884-3.323-4.494-6.888l.008-3.39-.018-3.855q.02-2.08.043-4.16l.003-4.29q.006-4.498.046-8.995c.034-3.822.042-7.643.04-11.465q.003-4.434.026-8.867.01-2.112.012-4.223c.029-12.786 1.035-23.546 9.647-33.555L34 90l1.672-1.527c12.258-10.359 29.875-9.68 42.902-1.293m-37.386 13.632C35.92 108.489 34.988 114.71 36 124c1.712 6.277 5.73 10.37 11 14 5.854 3.238 11.41 3.42 17.793 1.79 6.17-2.207 10.058-6.075 13.207-11.79 2.995-6.738 2.871-13.221.5-20.125-2.649-6.052-6.988-10.187-12.922-13.04-9.288-3.01-17.635-.778-24.39 5.978m328.687-13.188c8.31 6.574 12.298 14.01 14.125 24.375.457 5.32.433 10.655.391 15.991-.016 2.466 0 4.931.02 7.398a1904 1904 0 0 1-.013 4.732l.019 2.22c-.043 3.124-.235 5.33-1.762 8.089-2.48 2.353-4.273 2.57-7.655 2.57-3.316-1.916-4.719-3.048-5.812-6.75L369 144l-1.434 1.207c-8.58 6.874-16.593 8.876-27.566 7.793-10.008-2.112-17.056-7.818-23-16-5.383-9.367-5.336-20.79-3.41-31.184 2.593-8.424 8.03-15.05 15.453-19.738 13.403-6.993 28.083-7.16 40.832 1.547m-38.187 13.625c-4.139 5.288-6.28 10.871-5.973 17.676.939 6.829 3.243 12.256 8.285 17.074 5.19 3.41 10.693 5.546 17.004 4.746 7.707-1.623 12.234-5.605 16.797-11.844 3.374-5.352 2.794-11.828 2.199-17.902-2.164-7.423-6.317-12.211-13-16-9.54-3.18-18.514-1.031-25.312 6.25M164 88c6.843 6.528 10.509 13.256 11.203 22.79l.047 2.835.078 2.852C175 119 175 119 173.793 120.637c-2.386 1.814-3.835 1.726-6.815 1.704l-3.094-.001-3.333-.047-3.418-.013c-3.607-.017-7.213-.054-10.82-.093a6489 6489 0 0 0-7.33-.04Q129.99 122.094 121 122a715 715 0 0 0 2.324 4.816l1.308 2.71c2.928 5.295 7.499 8.098 13.177 9.962 7.889 1.842 13.491.41 20.55-3.394 3.087-1.279 5.33-1.373 8.641-1.094 2.078 1.433 2.818 2.635 3.938 4.875C171 142 171 142 169.563 144.5c-6.804 6.638-15.685 8.563-24.938 8.813-10.844-.213-19.394-3.526-27.379-10.942-7.46-8.058-9.589-17.46-9.457-28.176.738-11.18 5.076-18.47 13.086-26.007C132.848 78.158 151.926 78.262 164 88m-38 12c-3.378 5.218-3.378 5.218-5 11h41c-1.094-6.565-2.601-9.727-7.375-14.25-8.944-5.963-21.223-4.769-28.625 3.25m323-18c1.295 1.517 1.295 1.517 2.454 3.509l1.29 2.204a264 264 0 0 1 5.611 10.838l1.175 2.365q1.833 3.696 3.658 7.397 1.841 3.726 3.689 7.45 1.143 2.304 2.28 4.614c1.486 3 2.983 5.833 4.843 8.623 3.422-6.595 6.606-13.244 9.543-20.066l.904-2.1a2348 2348 0 0 0 3.675-8.595 1625 1625 0 0 1 2.733-6.368l.824-1.96c2.542-5.867 2.542-5.867 5.321-7.911 3.326-.425 5.337-.314 8.375 1.125C507 85 507 85 507.331 87.565c-.442 4.585-2.086 8.129-4.003 12.283l-1.182 2.634a1723 1723 0 0 1-3.896 8.58q-1.35 2.988-2.695 5.976-2.1 4.666-4.21 9.33a2506 2506 0 0 0-10.056 22.546l-2.75 6.234q-1.995 4.516-3.98 9.035a3580 3580 0 0 1-3.692 8.36l-1.102 2.519-1.02 2.294-.88 1.998C467 181 467 181 465 183c-3.249.353-5.379.278-8.375-1.062-2.459-2.932-1.892-5.194-1.625-8.938 1.133-3.194 1.133-3.194 2.695-6.414l1.668-3.555q1.324-2.755 2.66-5.503a473 473 0 0 0 2.547-5.38l1.555-3.213c1.089-3.653.657-4.62-1.125-7.935l-1.752-3.542q-1.047-2.04-2.1-4.075l-1.144-2.225q-1.202-2.333-2.406-4.665-1.8-3.486-3.594-6.977l-2.356-4.57-1.169-2.276c-1.897-3.676-3.829-7.326-5.85-10.937l-1.13-2.042q-1.05-1.886-2.131-3.752C439.258 92.133 438.55 89.336 439 85c2.283-4.029 5.79-3.798 10-3m-10.375-28.375C440 56 440 56 440 59.063c-1.19 3.497-1.714 4.294-5 5.937q-2.211.507-4.437.938c-4.115.818-6.577 1.986-9.563 5.062-1.644 2.85-2.463 5.536-3.125 8.75l-.508 2.422L417 84l3.14-.105q2.055-.043 4.11-.082l2.066-.077c3.13-.045 5.35.089 8.145 1.553C436 87 436 87 436.375 90.562 436 94 436 94 434 96c-2.91.145-5.72.186-8.625.125l-2.43-.027c-1.982-.024-3.963-.06-5.945-.098l.013 2.037q.066 10.463.097 20.924.015 3.908.04 7.817c.025 3.738.036 7.476.045 11.214l.032 3.548v3.276l.014 2.893C417 150 417 150 415 152c-7.304.464-7.304.464-11-2-1.125-2.991-1.122-5.873-1.114-9.044v-3.032l.016-3.252.005-3.346c.005-3.525.018-7.05.03-10.576q.009-3.585.014-7.172.017-8.79.049-17.578l-3.871.066c-3.871.067-3.871.067-6.192-1.129-1.555-3.213-.851-5.586.063-8.937 2.995-2.55 6.205-2.172 10-2l.043-2.055c.444-8.655 2.761-15.175 8.394-21.82 7.17-5.945 18.146-12.097 27.188-6.5M286 81.5c3.732.622 4.69 1.548 7 4.5.501 2.853.501 2.853.502 6.19l.028 3.792-.034 4.084q0 2.1.005 4.2 0 4.394-.034 8.787c-.029 3.756-.026 7.51-.013 11.265.007 2.889-.001 5.777-.014 8.666a682 682 0 0 0 0 4.154c.002 1.934-.016 3.868-.036 5.802l-.016 3.334C293 149 293 149 291.596 150.854c-1.99 1.429-3.162 1.549-5.596 1.521l-2.062.023c-2.593-.533-3.34-1.288-4.938-3.398-.388-2.726-.388-2.726-.404-6.06l-.038-3.783.008-4.09-.015-4.196q-.013-4.398.003-8.794c.011-3.754-.009-7.507-.038-11.261-.018-2.889-.018-5.777-.012-8.666q0-2.076-.019-4.151c-.015-1.937-.001-3.873.013-5.81v-3.336c.808-4.595 2.95-6.594 7.502-7.353m4-27.5c3.342 2.143 3.892 3.603 4.938 7.438.069 3.96-.504 5.497-2.938 8.562-3.198 1.6-6.522 1.358-10 1-2.437-1-2.437-1-4-3-1.087-4.495-1.574-6.715.313-10.937C281.45 53.226 285.325 53.352 290 54"/>
</svg>
